<svg width="17" height="23" viewBox="0 0 17 23" version="1.1" xmlns="http://www.w3.org/2000/svg" xmlns:xlink="http://www.w3.org/1999/xlink">
<title>Shape</title>
<desc>Created using Figma</desc>
<g id="Canvas" transform="translate(-4716 -1679)">
<g id="Shape">
<use xlink:href="#path0_fill" transform="translate(4716 1679)" fill="#9AB0B9"/>
</g>
</g>
<defs>
<path id="path0_fill" fill-rule="evenodd" d="M 5.98975 0C 5.42383 0 4.98486 0.447998 4.98486 1C 4.98486 1.26611 5.09082 1.52124 5.2793 1.70886C 5.37158 1.80066 5.47998 1.87256 5.59717 1.922C 5.67969 1.95667 5.7666 1.98022 5.85645 1.99182C 5.90039 1.99744 5.94482 2.00024 5.98975 2L 5.98682 5L 1.96484 5C 0.862793 5 0 5.89294 0 6.995L 0 19.005C 0 20.1071 0.862793 21 1.96387 21L 3.98389 21L 3.98389 22.001C 3.9834 22.0856 3.99414 22.1691 4.01465 22.2496C 4.03271 22.3191 4.05762 22.3864 4.08984 22.4503C 4.13721 22.545 4.2002 22.6324 4.27686 22.7087C 4.46484 22.8962 4.71973 23.0011 4.98486 23C 5.11328 23.0005 5.23926 22.9763 5.35645 22.9299C 5.48145 22.8804 5.59668 22.8055 5.69385 22.7087C 5.88184 22.5212 5.9873 22.2666 5.98682 22.001L 5.98682 21L 10.9951 21L 10.9951 22.001C 10.9946 22.2665 11.0996 22.5211 11.2876 22.7087C 11.374 22.7952 11.4751 22.864 11.5845 22.913C 11.7129 22.9703 11.853 23.0006 11.9961 23C 12.2617 23.0011 12.5166 22.8962 12.7046 22.7087C 12.8926 22.5212 12.998 22.2666 12.998 22.001L 12.998 21L 15.0869 21C 16.188 21 17 20.1071 17 19.005L 17 6.995C 17 5.89294 16.1899 5 15.0869 5L 10.9951 5L 10.9917 2C 11.5439 2 11.9917 1.55225 11.9917 1C 11.9917 0.447754 11.5439 0 10.9917 0L 5.98975 0ZM 9.99316 2L 6.98779 2L 6.98779 5L 9.99316 5L 9.99316 2ZM 11.9951 20L 4.98682 20L 4.98682 21L 4.98389 22.001L 4.98389 20L 1.96484 20C 1.4248 20 1 19.566 1 19.005L 1 6.995C 1 6.43506 1.42578 6 1.96484 6L 15.0869 6C 15.6079 6 16 6.41504 16 6.995L 16 19.005C 16 19.583 15.6069 20 15.0869 20L 11.9951 20Z"/>
</defs>
</svg>
