<svg width="125" height="42" viewBox="0 0 125 42" version="1.1" xmlns="http://www.w3.org/2000/svg" xmlns:xlink="http://www.w3.org/1999/xlink">
<title>Group</title>
<desc>Created using Figma</desc>
<g id="Canvas" transform="translate(-946 -4790)">
<g id="Group">
<g id="appsListItem as">
<use xlink:href="#path0_fill" transform="translate(946 4790)" fill="#1E292D"/>
</g>
<g id="text">
<use xlink:href="#path1_fill" transform="translate(989.523 4800.51)" fill="#FFFFFF"/>
<use xlink:href="#path2_fill" transform="translate(989.523 4800.51)" fill="#FFFFFF"/>
<use xlink:href="#path3_fill" transform="translate(989.523 4800.51)" fill="#FFFFFF"/>
<use xlink:href="#path4_fill" transform="translate(989.523 4800.51)" fill="#FFFFFF"/>
<use xlink:href="#path5_fill" transform="translate(989.523 4800.51)" fill="#FFFFFF"/>
<use xlink:href="#path6_fill" transform="translate(989.523 4800.51)" fill="#FFFFFF"/>
<use xlink:href="#path7_fill" transform="translate(989.523 4800.51)" fill="#FFFFFF"/>
<use xlink:href="#path8_fill" transform="translate(989.523 4800.51)" fill="#FFFFFF"/>
<use xlink:href="#path9_fill" transform="translate(989.523 4800.51)" fill="#FFFFFF"/>
</g>
<g id="appsListTitle">
<use xlink:href="#path10_fill" transform="translate(989.041 4814.35)" fill="#FFFFFF"/>
<use xlink:href="#path11_fill" transform="translate(989.041 4814.35)" fill="#FFFFFF"/>
<use xlink:href="#path12_fill" transform="translate(989.041 4814.35)" fill="#FFFFFF"/>
<use xlink:href="#path13_fill" transform="translate(989.041 4814.35)" fill="#FFFFFF"/>
<use xlink:href="#path14_fill" transform="translate(989.041 4814.35)" fill="#FFFFFF"/>
<use xlink:href="#path15_fill" transform="translate(989.041 4814.35)" fill="#FFFFFF"/>
<use xlink:href="#path16_fill" transform="translate(989.041 4814.35)" fill="#FFFFFF"/>
<use xlink:href="#path17_fill" transform="translate(989.041 4814.35)" fill="#FFFFFF"/>
</g>
<g id="path-3">
<use xlink:href="#path18_fill" transform="translate(958 4798)" fill="#FFFFFF"/>
<use xlink:href="#path19_stroke" transform="translate(958 4798)" fill="#FFFFFF" fill-opacity="0.16"/>
</g>
</g>
</g>
<defs>
<path id="path0_fill" fill-rule="evenodd" d="M 0 5C 0 2.23858 2.23858 0 5 0L 120 0C 122.761 0 125 2.23858 125 5L 125 37C 125 39.7614 122.761 42 120 42L 5 42C 2.23858 42 0 39.7614 0 37L 0 5Z"/>
<path id="path1_fill" d="M 4.92627 4.45605C 4.84717 5.13281 4.59668 5.65576 4.1748 6.0249C 3.75586 6.39111 3.19775 6.57422 2.50049 6.57422C 1.74463 6.57422 1.13818 6.30322 0.681152 5.76123C 0.227051 5.21924 0 4.49414 0 3.58594L 0 2.9707C 0 2.37598 0.105469 1.85303 0.316406 1.40186C 0.530273 0.950684 0.832031 0.60498 1.22168 0.364746C 1.61133 0.121582 2.0625 0 2.5752 0C 3.25488 0 3.7998 0.19043 4.20996 0.571289C 4.62012 0.949219 4.85889 1.47363 4.92627 2.14453L 4.07812 2.14453C 4.00488 1.63477 3.84521 1.26562 3.59912 1.03711C 3.35596 0.808594 3.01465 0.694336 2.5752 0.694336C 2.03613 0.694336 1.61279 0.893555 1.30518 1.29199C 1.00049 1.69043 0.848145 2.25732 0.848145 2.99268L 0.848145 3.6123C 0.848145 4.30664 0.993164 4.85889 1.2832 5.26904C 1.57324 5.6792 1.979 5.88428 2.50049 5.88428C 2.96924 5.88428 3.32812 5.77881 3.57715 5.56787C 3.8291 5.354 3.99609 4.9834 4.07812 4.45605L 4.92627 4.45605Z"/>
<path id="path2_fill" d="M 7.43555 4.46045L 6.84229 4.46045L 6.84229 6.48633L 6.0249 6.48633L 6.0249 1.73145L 6.84229 1.73145L 6.84229 3.74414L 7.37402 3.74414L 8.97363 1.73145L 9.95801 1.73145L 8.07715 4.0166L 10.1162 6.48633L 9.0835 6.48633L 7.43555 4.46045Z"/>
<path id="path3_fill" d="M 13.7505 6.48633C 13.7036 6.39258 13.6655 6.22559 13.6362 5.98535C 13.2583 6.37793 12.8071 6.57422 12.2827 6.57422C 11.814 6.57422 11.4287 6.44238 11.127 6.17871C 10.8281 5.91211 10.6787 5.5752 10.6787 5.16797C 10.6787 4.67285 10.8662 4.28906 11.2412 4.0166C 11.6191 3.74121 12.1494 3.60352 12.832 3.60352L 13.623 3.60352L 13.623 3.22998C 13.623 2.9458 13.5381 2.72021 13.3682 2.55322C 13.1982 2.3833 12.9478 2.29834 12.6167 2.29834C 12.3267 2.29834 12.0835 2.37158 11.8872 2.51807C 11.6909 2.66455 11.5928 2.8418 11.5928 3.0498L 10.7754 3.0498C 10.7754 2.8125 10.8589 2.58398 11.0259 2.36426C 11.1958 2.1416 11.4243 1.96582 11.7114 1.83691C 12.0015 1.70801 12.3193 1.64355 12.665 1.64355C 13.2129 1.64355 13.6421 1.78125 13.9526 2.05664C 14.2632 2.3291 14.4243 2.70557 14.436 3.18604L 14.436 5.37451C 14.436 5.81104 14.4917 6.1582 14.603 6.41602L 14.603 6.48633L 13.7505 6.48633ZM 12.4014 5.8667C 12.6562 5.8667 12.8979 5.80078 13.1265 5.66895C 13.355 5.53711 13.5205 5.36572 13.623 5.15479L 13.623 4.1792L 12.9858 4.1792C 11.9897 4.1792 11.4917 4.4707 11.4917 5.05371C 11.4917 5.30859 11.5767 5.50781 11.7466 5.65137C 11.9165 5.79492 12.1348 5.8667 12.4014 5.8667Z"/>
<path id="path4_fill" d="M 19.3008 6.48633L 18.4834 6.48633L 18.4834 4.76367C 18.126 4.85742 17.7598 4.9043 17.3848 4.9043C 16.79 4.9043 16.3359 4.75195 16.0225 4.44727C 15.7119 4.14258 15.5537 3.70898 15.5479 3.14648L 15.5479 1.72705L 16.3608 1.72705L 16.3608 3.17285C 16.3755 3.88184 16.7168 4.23633 17.3848 4.23633C 17.7598 4.23633 18.126 4.18945 18.4834 4.0957L 18.4834 1.73145L 19.3008 1.73145L 19.3008 6.48633Z"/>
<path id="path5_fill" d="M 23.5415 6.48633C 23.4946 6.39258 23.4565 6.22559 23.4272 5.98535C 23.0493 6.37793 22.5981 6.57422 22.0737 6.57422C 21.605 6.57422 21.2197 6.44238 20.918 6.17871C 20.6191 5.91211 20.4697 5.5752 20.4697 5.16797C 20.4697 4.67285 20.6572 4.28906 21.0322 4.0166C 21.4102 3.74121 21.9404 3.60352 22.623 3.60352L 23.4141 3.60352L 23.4141 3.22998C 23.4141 2.9458 23.3291 2.72021 23.1592 2.55322C 22.9893 2.3833 22.7388 2.29834 22.4077 2.29834C 22.1177 2.29834 21.8745 2.37158 21.6782 2.51807C 21.4819 2.66455 21.3838 2.8418 21.3838 3.0498L 20.5664 3.0498C 20.5664 2.8125 20.6499 2.58398 20.8169 2.36426C 20.9868 2.1416 21.2153 1.96582 21.5024 1.83691C 21.7925 1.70801 22.1104 1.64355 22.4561 1.64355C 23.0039 1.64355 23.4331 1.78125 23.7437 2.05664C 24.0542 2.3291 24.2153 2.70557 24.2271 3.18604L 24.2271 5.37451C 24.2271 5.81104 24.2827 6.1582 24.394 6.41602L 24.394 6.48633L 23.5415 6.48633ZM 22.1924 5.8667C 22.4473 5.8667 22.689 5.80078 22.9175 5.66895C 23.146 5.53711 23.3115 5.36572 23.4141 5.15479L 23.4141 4.1792L 22.7769 4.1792C 21.7808 4.1792 21.2827 4.4707 21.2827 5.05371C 21.2827 5.30859 21.3677 5.50781 21.5376 5.65137C 21.7075 5.79492 21.9258 5.8667 22.1924 5.8667Z"/>
<path id="path6_fill" d="M 28.5776 1.73145L 29.3906 1.73145L 29.3906 6.48633L 28.5776 6.48633L 28.5776 3.01904L 26.3848 6.48633L 25.5718 6.48633L 25.5718 1.73145L 26.3848 1.73145L 26.3848 5.20312L 28.5776 1.73145ZM 28.7974 0C 28.7974 0.354492 28.6758 0.640137 28.4326 0.856934C 28.1924 1.0708 27.876 1.17773 27.4834 1.17773C 27.0908 1.17773 26.7729 1.06934 26.5298 0.852539C 26.2866 0.635742 26.165 0.351562 26.165 0L 26.8286 0C 26.8286 0.205078 26.8843 0.366211 26.9956 0.483398C 27.1069 0.597656 27.2695 0.654785 27.4834 0.654785C 27.6885 0.654785 27.8481 0.597656 27.9624 0.483398C 28.0796 0.369141 28.1382 0.208008 28.1382 0L 28.7974 0Z"/>
<path id="path7_fill" d="M 34.229 2.39062L 32.6338 2.39062L 32.6338 6.48633L 31.8208 6.48633L 31.8208 2.39062L 30.2563 2.39062L 30.2563 1.73145L 34.229 1.73145L 34.229 2.39062Z"/>
<path id="path8_fill" d="M 36.6416 6.57422C 35.9971 6.57422 35.4727 6.36328 35.0684 5.94141C 34.6641 5.5166 34.4619 4.94971 34.4619 4.24072L 34.4619 4.09131C 34.4619 3.61963 34.5513 3.19922 34.73 2.83008C 34.9116 2.45801 35.1636 2.16797 35.4858 1.95996C 35.811 1.74902 36.1626 1.64355 36.5405 1.64355C 37.1587 1.64355 37.6392 1.84717 37.9819 2.25439C 38.3247 2.66162 38.4961 3.24463 38.4961 4.00342L 38.4961 4.3418L 35.2749 4.3418C 35.2866 4.81055 35.4229 5.18994 35.6836 5.47998C 35.9473 5.76709 36.2812 5.91064 36.6855 5.91064C 36.9727 5.91064 37.2158 5.85205 37.415 5.73486C 37.6143 5.61768 37.7886 5.4624 37.938 5.26904L 38.4346 5.65576C 38.0361 6.26807 37.4385 6.57422 36.6416 6.57422ZM 36.5405 2.31152C 36.2124 2.31152 35.937 2.43164 35.7144 2.67188C 35.4917 2.90918 35.354 3.24316 35.3013 3.67383L 37.6831 3.67383L 37.6831 3.6123C 37.6597 3.19922 37.5483 2.87988 37.3491 2.6543C 37.1499 2.42578 36.8804 2.31152 36.5405 2.31152Z"/>
<path id="path9_fill" d="M 41.748 6.48633L 41.748 1.73145L 43.6025 1.73145C 44.2354 1.73145 44.7202 1.84277 45.0571 2.06543C 45.397 2.28516 45.5669 2.60889 45.5669 3.03662C 45.5669 3.25635 45.501 3.45557 45.3691 3.63428C 45.2373 3.81006 45.0425 3.94482 44.7847 4.03857C 45.0718 4.10596 45.3018 4.23779 45.4746 4.43408C 45.6504 4.63037 45.7383 4.86475 45.7383 5.13721C 45.7383 5.57373 45.5771 5.90771 45.2549 6.13916C 44.9355 6.37061 44.4829 6.48633 43.897 6.48633L 41.748 6.48633ZM 42.561 4.39893L 42.561 5.83154L 43.9058 5.83154C 44.2456 5.83154 44.499 5.76855 44.666 5.64258C 44.8359 5.5166 44.9209 5.33936 44.9209 5.11084C 44.9209 4.63623 44.5723 4.39893 43.875 4.39893L 42.561 4.39893ZM 42.561 3.74854L 43.6113 3.74854C 44.373 3.74854 44.7539 3.52588 44.7539 3.08057C 44.7539 2.63525 44.3936 2.40527 43.6729 2.39062L 42.561 2.39062L 42.561 3.74854Z"/>
<path id="path10_fill" d="M 5.53711 6.89062L 2.45508 6.89062L 1.86914 8.64844L 0 8.64844L 3.17578 0.117188L 4.80469 0.117188L 7.99805 8.64844L 6.12891 8.64844L 5.53711 6.89062ZM 2.92969 5.4668L 5.0625 5.4668L 3.99023 2.27344L 2.92969 5.4668Z"/>
<path id="path11_fill" d="M 14.1094 5.53711C 14.1094 6.51367 13.8867 7.29688 13.4414 7.88672C 13 8.47266 12.4023 8.76562 11.6484 8.76562C 11.0078 8.76562 10.4902 8.54297 10.0957 8.09766L 10.0957 11.0859L 8.40234 11.0859L 8.40234 2.30859L 9.97266 2.30859L 10.0312 2.92969C 10.4414 2.4375 10.9766 2.19141 11.6367 2.19141C 12.418 2.19141 13.0254 2.48047 13.459 3.05859C 13.8926 3.63672 14.1094 4.43359 14.1094 5.44922L 14.1094 5.53711ZM 12.416 5.41406C 12.416 4.82422 12.3105 4.36914 12.0996 4.04883C 11.8926 3.72852 11.5898 3.56836 11.1914 3.56836C 10.6602 3.56836 10.2949 3.77148 10.0957 4.17773L 10.0957 6.77344C 10.3027 7.19141 10.6719 7.40039 11.2031 7.40039C 12.0117 7.40039 12.416 6.73828 12.416 5.41406Z"/>
<path id="path12_fill" d="M 20.8711 5.53711C 20.8711 6.51367 20.6484 7.29688 20.2031 7.88672C 19.7617 8.47266 19.1641 8.76562 18.4102 8.76562C 17.7695 8.76562 17.252 8.54297 16.8574 8.09766L 16.8574 11.0859L 15.1641 11.0859L 15.1641 2.30859L 16.7344 2.30859L 16.793 2.92969C 17.2031 2.4375 17.7383 2.19141 18.3984 2.19141C 19.1797 2.19141 19.7871 2.48047 20.2207 3.05859C 20.6543 3.63672 20.8711 4.43359 20.8711 5.44922L 20.8711 5.53711ZM 19.1777 5.41406C 19.1777 4.82422 19.0723 4.36914 18.8613 4.04883C 18.6543 3.72852 18.3516 3.56836 17.9531 3.56836C 17.4219 3.56836 17.0566 3.77148 16.8574 4.17773L 16.8574 6.77344C 17.0645 7.19141 17.4336 7.40039 17.9648 7.40039C 18.7734 7.40039 19.1777 6.73828 19.1777 5.41406Z"/>
<path id="path13_fill" d="M 29.4492 6.41016C 29.4492 6.07813 29.332 5.82422 29.0977 5.64844C 28.8633 5.46875 28.4414 5.28125 27.832 5.08594C 27.2227 4.88672 26.7402 4.69141 26.3848 4.5C 25.416 3.97656 24.9316 3.27148 24.9316 2.38477C 24.9316 1.92383 25.0605 1.51367 25.3184 1.1543C 25.5801 0.791016 25.9531 0.507812 26.4375 0.304688C 26.9258 0.101563 27.4727 0 28.0781 0C 28.6875 0 29.2305 0.111328 29.707 0.333984C 30.1836 0.552735 30.5527 0.863281 30.8145 1.26562C 31.0801 1.66797 31.2129 2.125 31.2129 2.63672L 29.4551 2.63672C 29.4551 2.24609 29.332 1.94336 29.0859 1.72852C 28.8398 1.50977 28.4941 1.40039 28.0488 1.40039C 27.6191 1.40039 27.2852 1.49219 27.0469 1.67578C 26.8086 1.85547 26.6895 2.09375 26.6895 2.39062C 26.6895 2.66797 26.8281 2.90039 27.1055 3.08789C 27.3867 3.27539 27.7988 3.45117 28.3418 3.61523C 29.3418 3.91602 30.0703 4.28906 30.5273 4.73438C 30.9844 5.17969 31.2129 5.73437 31.2129 6.39844C 31.2129 7.13672 30.9336 7.7168 30.375 8.13867C 29.8164 8.55664 29.0645 8.76562 28.1191 8.76562C 27.4629 8.76562 26.8652 8.64648 26.3262 8.4082C 25.7871 8.16602 25.375 7.83594 25.0898 7.41797C 24.8086 7 24.668 6.51562 24.668 5.96484L 26.4316 5.96484C 26.4316 6.90625 26.9941 7.37695 28.1191 7.37695C 28.5371 7.37695 28.8633 7.29297 29.0977 7.125C 29.332 6.95312 29.4492 6.71484 29.4492 6.41016Z"/>
<path id="path14_fill" d="M 34.3242 0.75L 34.3242 2.30859L 35.4082 2.30859L 35.4082 3.55078L 34.3242 3.55078L 34.3242 6.71484C 34.3242 6.94922 34.3691 7.11719 34.459 7.21875C 34.5488 7.32031 34.7207 7.37109 34.9746 7.37109C 35.1621 7.37109 35.3281 7.35742 35.4727 7.33008L 35.4727 8.61328C 35.1406 8.71484 34.7988 8.76562 34.4473 8.76562C 33.2598 8.76562 32.6543 8.16602 32.6309 6.9668L 32.6309 3.55078L 31.7051 3.55078L 31.7051 2.30859L 32.6309 2.30859L 32.6309 0.75L 34.3242 0.75Z"/>
<path id="path15_fill" d="M 35.9121 5.41992C 35.9121 4.79102 36.0332 4.23047 36.2754 3.73828C 36.5176 3.24609 36.8652 2.86523 37.3184 2.5957C 37.7754 2.32617 38.3047 2.19141 38.9062 2.19141C 39.7617 2.19141 40.459 2.45312 40.998 2.97656C 41.541 3.5 41.8438 4.21094 41.9062 5.10938L 41.918 5.54297C 41.918 6.51562 41.6465 7.29688 41.1035 7.88672C 40.5605 8.47266 39.832 8.76562 38.918 8.76562C 38.0039 8.76562 37.2734 8.47266 36.7266 7.88672C 36.1836 7.30078 35.9121 6.50391 35.9121 5.49609L 35.9121 5.41992ZM 37.6055 5.54297C 37.6055 6.14453 37.7188 6.60547 37.9453 6.92578C 38.1719 7.24219 38.4961 7.40039 38.918 7.40039C 39.3281 7.40039 39.6484 7.24414 39.8789 6.93164C 40.1094 6.61523 40.2246 6.11133 40.2246 5.41992C 40.2246 4.83008 40.1094 4.37305 39.8789 4.04883C 39.6484 3.72461 39.3242 3.5625 38.9062 3.5625C 38.4922 3.5625 38.1719 3.72461 37.9453 4.04883C 37.7188 4.36914 37.6055 4.86719 37.6055 5.54297Z"/>
<path id="path16_fill" d="M 46.5234 3.89648C 46.293 3.86523 46.0898 3.84961 45.9141 3.84961C 45.2734 3.84961 44.8535 4.06641 44.6543 4.5L 44.6543 8.64844L 42.9609 8.64844L 42.9609 2.30859L 44.5605 2.30859L 44.6074 3.06445C 44.9473 2.48242 45.418 2.19141 46.0195 2.19141C 46.207 2.19141 46.3828 2.2168 46.5469 2.26758L 46.5234 3.89648Z"/>
<path id="path17_fill" d="M 50.1445 8.76562C 49.2148 8.76562 48.457 8.48047 47.8711 7.91016C 47.2891 7.33984 46.998 6.58008 46.998 5.63086L 46.998 5.4668C 46.998 4.83008 47.1211 4.26172 47.3672 3.76172C 47.6133 3.25781 47.9609 2.87109 48.4102 2.60156C 48.8633 2.32813 49.3789 2.19141 49.957 2.19141C 50.8242 2.19141 51.5059 2.46484 52.002 3.01172C 52.502 3.55859 52.752 4.33398 52.752 5.33789L 52.752 6.0293L 48.7148 6.0293C 48.7695 6.44336 48.9336 6.77539 49.207 7.02539C 49.4844 7.27539 49.834 7.40039 50.2559 7.40039C 50.9082 7.40039 51.418 7.16406 51.7852 6.69141L 52.6172 7.62305C 52.3633 7.98242 52.0195 8.26367 51.5859 8.4668C 51.1523 8.66602 50.6719 8.76562 50.1445 8.76562ZM 49.9512 3.5625C 49.6152 3.5625 49.3418 3.67578 49.1309 3.90234C 48.9238 4.12891 48.791 4.45312 48.7324 4.875L 51.0879 4.875L 51.0879 4.74023C 51.0801 4.36523 50.9785 4.07617 50.7832 3.87305C 50.5879 3.66602 50.3105 3.5625 49.9512 3.5625Z"/>
<path id="path18_fill" fill-rule="evenodd" d="M 17.2503 13.0643C 17.2215 9.96066 19.8763 8.45075 19.9977 8.38045C 18.4941 6.25906 16.1637 5.96921 15.3448 5.9461C 13.3875 5.74677 11.489 7.0795 10.4919 7.0795C 9.47498 7.0795 7.93962 5.96536 6.28485 5.9981C 4.15543 6.02988 2.16334 7.22298 1.07077 9.0757C -1.18402 12.8534 0.497621 18.4048 2.65788 21.4583C 3.73851 22.9548 5.00123 24.6236 6.65401 24.5648C 8.27097 24.5013 8.87497 23.5672 10.8263 23.5672C 12.7597 23.5672 13.3268 24.5648 15.0125 24.5263C 16.7478 24.5013 17.8404 23.0251 18.8832 21.5151C 20.132 19.803 20.6335 18.113 20.6534 18.0264C 20.6136 18.0138 17.2842 16.7841 17.2503 13.0643ZM 14.0662 3.93752C 14.9359 2.88501 15.5309 1.4531 15.3657 0C 14.107 0.0539254 12.5328 0.842585 11.6263 1.87198C 10.8243 2.77909 10.1079 4.26589 10.2929 5.66409C 11.7069 5.76617 13.1587 4.97366 14.0662 3.93752Z"/>
<path id="path19_stroke" d="M 17.2503 13.0643L 17.6734 13.0604L 17.6734 13.0603L 17.2503 13.0643ZM 19.9977 8.38045L 20.2097 8.74657L 20.611 8.51418L 20.3428 8.13581L 19.9977 8.38045ZM 15.3448 5.9461L 15.3019 6.367L 15.3174 6.36857L 15.3329 6.36901L 15.3448 5.9461ZM 6.28485 5.9981L 6.29116 6.42114L 6.29321 6.4211L 6.28485 5.9981ZM 1.07077 9.0757L 1.43406 9.29254L 1.4352 9.29061L 1.07077 9.0757ZM 2.65788 21.4583L 2.31248 21.7027L 2.31489 21.706L 2.65788 21.4583ZM 6.65401 24.5648L 6.66904 24.9876L 6.67063 24.9876L 6.65401 24.5648ZM 15.0125 24.5263L 15.0063 24.1033L 15.0028 24.1033L 15.0125 24.5263ZM 18.8832 21.5151L 18.5413 21.2657L 18.5351 21.2747L 18.8832 21.5151ZM 20.6534 18.0264L 21.0657 18.121L 21.1532 17.7401L 20.7803 17.6228L 20.6534 18.0264ZM 14.0662 3.93752L 14.3846 4.21638L 14.3923 4.20701L 14.0662 3.93752ZM 15.3657 0L 15.7861 -0.0477849L 15.7415 -0.439566L 15.3476 -0.422689L 15.3657 0ZM 11.6263 1.87198L 11.9433 2.15222L 11.9438 2.15159L 11.6263 1.87198ZM 10.2929 5.66409L 9.87352 5.71961L 9.91874 6.06126L 10.2625 6.08607L 10.2929 5.66409ZM 17.6734 13.0603C 17.6469 10.216 20.0893 8.81625 20.2097 8.74657L 19.7857 8.01433C 19.6632 8.08525 16.796 9.70531 16.8273 13.0682L 17.6734 13.0603ZM 20.3428 8.13581C 18.7242 5.85205 16.2246 5.54769 15.3567 5.52319L 15.3329 6.36901C 16.1028 6.39074 18.264 6.66608 19.6525 8.62509L 20.3428 8.13581ZM 15.3877 5.5252C 14.3076 5.41521 13.2665 5.72894 12.4131 6.04066C 11.9603 6.20606 11.611 6.35099 11.2561 6.47496C 10.9095 6.59602 10.6633 6.65642 10.4919 6.65642L 10.4919 7.50258C 10.8191 7.50258 11.1841 7.39639 11.5351 7.27379C 11.8777 7.15411 12.3123 6.97831 12.7034 6.83545C 13.5379 6.53063 14.4248 6.27767 15.3019 6.367L 15.3877 5.5252ZM 10.4919 6.65642C 10.3071 6.65642 10.0725 6.60441 9.77166 6.50443C 9.47072 6.40444 9.15038 6.27347 8.77866 6.13135C 8.05898 5.85619 7.19356 5.55696 6.27648 5.57511L 6.29321 6.4211C 7.0309 6.4065 7.76055 6.64798 8.47648 6.9217C 8.82257 7.05402 9.18017 7.19954 9.50484 7.30742C 9.82957 7.41532 10.1683 7.50258 10.4919 7.50258L 10.4919 6.65642ZM 6.27853 5.57507C 3.99615 5.60913 1.87101 6.88581 0.706342 8.8608L 1.4352 9.29061C 2.45567 7.56015 4.31472 6.45063 6.29116 6.42113L 6.27853 5.57507ZM 0.707486 8.85887C -0.490747 10.8664 -0.626856 13.3138 -0.207537 15.6144C 0.212288 17.9178 1.19734 20.1264 2.3125 21.7027L 3.00326 21.214C 1.95816 19.7367 1.02226 17.6428 0.624903 15.4627C 0.227036 13.2798 0.377501 11.0627 1.43406 9.29254L 0.707486 8.85887ZM 2.31489 21.706C 2.85226 22.4502 3.4621 23.277 4.15697 23.908C 4.85335 24.5403 5.68574 25.0226 6.66904 24.9876L 6.63898 24.142C 5.9695 24.1658 5.34413 23.843 4.7258 23.2815C 4.10596 22.7187 3.54413 21.9629 3.00087 21.2106L 2.31489 21.706ZM 6.67063 24.9876C 7.56484 24.9524 8.18793 24.6712 8.77339 24.4344C 9.35105 24.2008 9.93064 23.9903 10.8263 23.9903L 10.8263 23.1441C 9.7706 23.1441 9.07254 23.4007 8.45614 23.65C 7.84753 23.8961 7.36014 24.1137 6.63739 24.1421L 6.67063 24.9876ZM 10.8263 23.9903C 11.7072 23.9903 12.2691 24.2128 12.8512 24.4524C 13.4454 24.697 14.082 24.9707 15.0221 24.9493L 15.0028 24.1033C 14.2573 24.1204 13.7675 23.9145 13.1733 23.67C 12.5671 23.4204 11.8787 23.1441 10.8263 23.1441L 10.8263 23.9903ZM 15.0186 24.9493C 16.0188 24.9349 16.8201 24.4981 17.4913 23.8914C 18.1533 23.2929 18.7126 22.5066 19.2313 21.7556L 18.5351 21.2747C 18.011 22.0336 17.5026 22.7404 16.9238 23.2637C 16.3541 23.7788 15.7415 24.0927 15.0063 24.1033L 15.0186 24.9493ZM 19.225 21.7645C 20.5123 19.9995 21.035 18.255 21.0657 18.121L 20.2411 17.9317C 20.2418 17.9286 20.2136 18.0315 20.1449 18.2271C 20.0787 18.4153 19.979 18.6782 19.8417 18.9912C 19.5667 19.6183 19.1434 20.4405 18.5414 21.2658L 19.225 21.7645ZM 20.7803 17.6228C 20.8076 17.6313 20.0233 17.3482 19.236 16.6242C 18.46 15.9105 17.689 14.7781 17.6734 13.0604L 16.8273 13.0681C 16.8455 15.0703 17.7561 16.4127 18.6632 17.247C 19.559 18.0709 20.4594 18.4089 20.5265 18.4299L 20.7803 17.6228ZM 14.3923 4.20701C 15.3143 3.0912 15.9675 1.5484 15.7861 -0.0477849L 14.9453 0.0477849C 15.0943 1.35779 14.5574 2.67882 13.74 3.66803L 14.3923 4.20701ZM 15.3476 -0.422689C 13.9627 -0.363359 12.2838 0.485162 11.3088 1.59238L 11.9438 2.15159C 12.7818 1.20001 14.2512 0.47121 15.3838 0.422689L 15.3476 -0.422689ZM 11.3094 1.59175C 10.4591 2.55342 9.66682 4.15808 9.87352 5.71961L 10.7124 5.60858C 10.5489 4.37369 11.1895 3.00475 11.9433 2.15222L 11.3094 1.59175ZM 10.2625 6.08607C 11.8439 6.20023 13.4158 5.32228 14.3844 4.21627L 13.7479 3.65877C 12.9016 4.62504 11.57 5.3321 10.3234 5.24212L 10.2625 6.08607Z"/>
</defs>
</svg>
