<svg width="125" height="42" viewBox="0 0 125 42" version="1.1" xmlns="http://www.w3.org/2000/svg" xmlns:xlink="http://www.w3.org/1999/xlink">
<title>Group</title>
<desc>Created using Figma</desc>
<g id="Canvas" transform="translate(-1081 -4790)">
<g id="Group">
<g id="appsListItem gp">
<use xlink:href="#path0_fill" transform="translate(1081 4790)" fill="#1E292D"/>
</g>
<g id="play_solid">
<use xlink:href="#path1_fill" transform="translate(1095 4800)" fill="#FFFFFF"/>
</g>
<g id="text">
<use xlink:href="#path2_fill" transform="translate(1124.52 4800.51)" fill="#FFFFFF"/>
<use xlink:href="#path3_fill" transform="translate(1124.52 4800.51)" fill="#FFFFFF"/>
<use xlink:href="#path4_fill" transform="translate(1124.52 4800.51)" fill="#FFFFFF"/>
<use xlink:href="#path5_fill" transform="translate(1124.52 4800.51)" fill="#FFFFFF"/>
<use xlink:href="#path6_fill" transform="translate(1124.52 4800.51)" fill="#FFFFFF"/>
<use xlink:href="#path7_fill" transform="translate(1124.52 4800.51)" fill="#FFFFFF"/>
<use xlink:href="#path8_fill" transform="translate(1124.52 4800.51)" fill="#FFFFFF"/>
<use xlink:href="#path9_fill" transform="translate(1124.52 4800.51)" fill="#FFFFFF"/>
<use xlink:href="#path10_fill" transform="translate(1124.52 4800.51)" fill="#FFFFFF"/>
</g>
<g id="appsListTitle">
<use xlink:href="#path11_fill" transform="translate(1124.55 4814)" fill="#FFFFFF"/>
<use xlink:href="#path12_fill" transform="translate(1124.55 4814)" fill="#FFFFFF"/>
<use xlink:href="#path13_fill" transform="translate(1124.55 4814)" fill="#FFFFFF"/>
<use xlink:href="#path14_fill" transform="translate(1124.55 4814)" fill="#FFFFFF"/>
<use xlink:href="#path15_fill" transform="translate(1124.55 4814)" fill="#FFFFFF"/>
<use xlink:href="#path16_fill" transform="translate(1124.55 4814)" fill="#FFFFFF"/>
<use xlink:href="#path17_fill" transform="translate(1124.55 4814)" fill="#FFFFFF"/>
<use xlink:href="#path18_fill" transform="translate(1124.55 4814)" fill="#FFFFFF"/>
<use xlink:href="#path19_fill" transform="translate(1124.55 4814)" fill="#FFFFFF"/>
<use xlink:href="#path20_fill" transform="translate(1124.55 4814)" fill="#FFFFFF"/>
</g>
</g>
</g>
<defs>
<path id="path0_fill" fill-rule="evenodd" d="M 0 5C 0 2.23858 2.23858 0 5 0L 120 0C 122.761 0 125 2.23858 125 5L 125 37C 125 39.7614 122.761 42 120 42L 5 42C 2.23858 42 0 39.7614 0 37L 0 5Z"/>
<path id="path1_fill" d="M 10.0015 5.14829C 10.0015 5.14829 1.49752 0.409433 0.998068 0.131021C 0.497788 -0.147391 0 0.0214957 0 0.603402L 0 10.7199L 0 21.042C 0 21.4776 0.355681 21.6666 0.790311 21.4249C 1.22411 21.1833 10.0015 16.2915 10.0015 16.2915L 11.79 15.2953C 12.7495 14.7609 14.6685 13.6921 14.6685 13.6921C 14.6685 13.6921 18.6284 11.4849 19.1553 11.1923C 19.6813 10.8988 19.6306 10.4966 19.1868 10.265C 18.7422 10.0343 14.6685 7.74847 14.6685 7.74847L 10.0015 5.14829Z"/>
<path id="path2_fill" d="M 4.92627 4.45605C 4.84717 5.13281 4.59668 5.65576 4.1748 6.0249C 3.75586 6.39111 3.19775 6.57422 2.50049 6.57422C 1.74463 6.57422 1.13818 6.30322 0.681152 5.76123C 0.227051 5.21924 0 4.49414 0 3.58594L 0 2.9707C 0 2.37598 0.105469 1.85303 0.316406 1.40186C 0.530273 0.950684 0.832031 0.60498 1.22168 0.364746C 1.61133 0.121582 2.0625 0 2.5752 0C 3.25488 0 3.7998 0.19043 4.20996 0.571289C 4.62012 0.949219 4.85889 1.47363 4.92627 2.14453L 4.07812 2.14453C 4.00488 1.63477 3.84521 1.26562 3.59912 1.03711C 3.35596 0.808594 3.01465 0.694336 2.5752 0.694336C 2.03613 0.694336 1.61279 0.893555 1.30518 1.29199C 1.00049 1.69043 0.848145 2.25732 0.848145 2.99268L 0.848145 3.6123C 0.848145 4.30664 0.993164 4.85889 1.2832 5.26904C 1.57324 5.6792 1.979 5.88428 2.50049 5.88428C 2.96924 5.88428 3.32812 5.77881 3.57715 5.56787C 3.8291 5.354 3.99609 4.9834 4.07812 4.45605L 4.92627 4.45605Z"/>
<path id="path3_fill" d="M 7.43555 4.46045L 6.84229 4.46045L 6.84229 6.48633L 6.0249 6.48633L 6.0249 1.73145L 6.84229 1.73145L 6.84229 3.74414L 7.37402 3.74414L 8.97363 1.73145L 9.95801 1.73145L 8.07715 4.0166L 10.1162 6.48633L 9.0835 6.48633L 7.43555 4.46045Z"/>
<path id="path4_fill" d="M 13.7505 6.48633C 13.7036 6.39258 13.6655 6.22559 13.6362 5.98535C 13.2583 6.37793 12.8071 6.57422 12.2827 6.57422C 11.814 6.57422 11.4287 6.44238 11.127 6.17871C 10.8281 5.91211 10.6787 5.5752 10.6787 5.16797C 10.6787 4.67285 10.8662 4.28906 11.2412 4.0166C 11.6191 3.74121 12.1494 3.60352 12.832 3.60352L 13.623 3.60352L 13.623 3.22998C 13.623 2.9458 13.5381 2.72021 13.3682 2.55322C 13.1982 2.3833 12.9478 2.29834 12.6167 2.29834C 12.3267 2.29834 12.0835 2.37158 11.8872 2.51807C 11.6909 2.66455 11.5928 2.8418 11.5928 3.0498L 10.7754 3.0498C 10.7754 2.8125 10.8589 2.58398 11.0259 2.36426C 11.1958 2.1416 11.4243 1.96582 11.7114 1.83691C 12.0015 1.70801 12.3193 1.64355 12.665 1.64355C 13.2129 1.64355 13.6421 1.78125 13.9526 2.05664C 14.2632 2.3291 14.4243 2.70557 14.436 3.18604L 14.436 5.37451C 14.436 5.81104 14.4917 6.1582 14.603 6.41602L 14.603 6.48633L 13.7505 6.48633ZM 12.4014 5.8667C 12.6562 5.8667 12.8979 5.80078 13.1265 5.66895C 13.355 5.53711 13.5205 5.36572 13.623 5.15479L 13.623 4.1792L 12.9858 4.1792C 11.9897 4.1792 11.4917 4.4707 11.4917 5.05371C 11.4917 5.30859 11.5767 5.50781 11.7466 5.65137C 11.9165 5.79492 12.1348 5.8667 12.4014 5.8667Z"/>
<path id="path5_fill" d="M 19.3008 6.48633L 18.4834 6.48633L 18.4834 4.76367C 18.126 4.85742 17.7598 4.9043 17.3848 4.9043C 16.79 4.9043 16.3359 4.75195 16.0225 4.44727C 15.7119 4.14258 15.5537 3.70898 15.5479 3.14648L 15.5479 1.72705L 16.3608 1.72705L 16.3608 3.17285C 16.3755 3.88184 16.7168 4.23633 17.3848 4.23633C 17.7598 4.23633 18.126 4.18945 18.4834 4.0957L 18.4834 1.73145L 19.3008 1.73145L 19.3008 6.48633Z"/>
<path id="path6_fill" d="M 23.5415 6.48633C 23.4946 6.39258 23.4565 6.22559 23.4272 5.98535C 23.0493 6.37793 22.5981 6.57422 22.0737 6.57422C 21.605 6.57422 21.2197 6.44238 20.918 6.17871C 20.6191 5.91211 20.4697 5.5752 20.4697 5.16797C 20.4697 4.67285 20.6572 4.28906 21.0322 4.0166C 21.4102 3.74121 21.9404 3.60352 22.623 3.60352L 23.4141 3.60352L 23.4141 3.22998C 23.4141 2.9458 23.3291 2.72021 23.1592 2.55322C 22.9893 2.3833 22.7388 2.29834 22.4077 2.29834C 22.1177 2.29834 21.8745 2.37158 21.6782 2.51807C 21.4819 2.66455 21.3838 2.8418 21.3838 3.0498L 20.5664 3.0498C 20.5664 2.8125 20.6499 2.58398 20.8169 2.36426C 20.9868 2.1416 21.2153 1.96582 21.5024 1.83691C 21.7925 1.70801 22.1104 1.64355 22.4561 1.64355C 23.0039 1.64355 23.4331 1.78125 23.7437 2.05664C 24.0542 2.3291 24.2153 2.70557 24.2271 3.18604L 24.2271 5.37451C 24.2271 5.81104 24.2827 6.1582 24.394 6.41602L 24.394 6.48633L 23.5415 6.48633ZM 22.1924 5.8667C 22.4473 5.8667 22.689 5.80078 22.9175 5.66895C 23.146 5.53711 23.3115 5.36572 23.4141 5.15479L 23.4141 4.1792L 22.7769 4.1792C 21.7808 4.1792 21.2827 4.4707 21.2827 5.05371C 21.2827 5.30859 21.3677 5.50781 21.5376 5.65137C 21.7075 5.79492 21.9258 5.8667 22.1924 5.8667Z"/>
<path id="path7_fill" d="M 28.5776 1.73145L 29.3906 1.73145L 29.3906 6.48633L 28.5776 6.48633L 28.5776 3.01904L 26.3848 6.48633L 25.5718 6.48633L 25.5718 1.73145L 26.3848 1.73145L 26.3848 5.20312L 28.5776 1.73145ZM 28.7974 0C 28.7974 0.354492 28.6758 0.640137 28.4326 0.856934C 28.1924 1.0708 27.876 1.17773 27.4834 1.17773C 27.0908 1.17773 26.7729 1.06934 26.5298 0.852539C 26.2866 0.635742 26.165 0.351562 26.165 0L 26.8286 0C 26.8286 0.205078 26.8843 0.366211 26.9956 0.483398C 27.1069 0.597656 27.2695 0.654785 27.4834 0.654785C 27.6885 0.654785 27.8481 0.597656 27.9624 0.483398C 28.0796 0.369141 28.1382 0.208008 28.1382 0L 28.7974 0Z"/>
<path id="path8_fill" d="M 34.229 2.39062L 32.6338 2.39062L 32.6338 6.48633L 31.8208 6.48633L 31.8208 2.39062L 30.2563 2.39062L 30.2563 1.73145L 34.229 1.73145L 34.229 2.39062Z"/>
<path id="path9_fill" d="M 36.6416 6.57422C 35.9971 6.57422 35.4727 6.36328 35.0684 5.94141C 34.6641 5.5166 34.4619 4.94971 34.4619 4.24072L 34.4619 4.09131C 34.4619 3.61963 34.5513 3.19922 34.73 2.83008C 34.9116 2.45801 35.1636 2.16797 35.4858 1.95996C 35.811 1.74902 36.1626 1.64355 36.5405 1.64355C 37.1587 1.64355 37.6392 1.84717 37.9819 2.25439C 38.3247 2.66162 38.4961 3.24463 38.4961 4.00342L 38.4961 4.3418L 35.2749 4.3418C 35.2866 4.81055 35.4229 5.18994 35.6836 5.47998C 35.9473 5.76709 36.2812 5.91064 36.6855 5.91064C 36.9727 5.91064 37.2158 5.85205 37.415 5.73486C 37.6143 5.61768 37.7886 5.4624 37.938 5.26904L 38.4346 5.65576C 38.0361 6.26807 37.4385 6.57422 36.6416 6.57422ZM 36.5405 2.31152C 36.2124 2.31152 35.937 2.43164 35.7144 2.67188C 35.4917 2.90918 35.354 3.24316 35.3013 3.67383L 37.6831 3.67383L 37.6831 3.6123C 37.6597 3.19922 37.5483 2.87988 37.3491 2.6543C 37.1499 2.42578 36.8804 2.31152 36.5405 2.31152Z"/>
<path id="path10_fill" d="M 41.748 6.48633L 41.748 1.73145L 43.6025 1.73145C 44.2354 1.73145 44.7202 1.84277 45.0571 2.06543C 45.397 2.28516 45.5669 2.60889 45.5669 3.03662C 45.5669 3.25635 45.501 3.45557 45.3691 3.63428C 45.2373 3.81006 45.0425 3.94482 44.7847 4.03857C 45.0718 4.10596 45.3018 4.23779 45.4746 4.43408C 45.6504 4.63037 45.7383 4.86475 45.7383 5.13721C 45.7383 5.57373 45.5771 5.90771 45.2549 6.13916C 44.9355 6.37061 44.4829 6.48633 43.897 6.48633L 41.748 6.48633ZM 42.561 4.39893L 42.561 5.83154L 43.9058 5.83154C 44.2456 5.83154 44.499 5.76855 44.666 5.64258C 44.8359 5.5166 44.9209 5.33936 44.9209 5.11084C 44.9209 4.63623 44.5723 4.39893 43.875 4.39893L 42.561 4.39893ZM 42.561 3.74854L 43.6113 3.74854C 44.373 3.74854 44.7539 3.52588 44.7539 3.08057C 44.7539 2.63525 44.3936 2.40527 43.6729 2.39062L 42.561 2.39062L 42.561 3.74854Z"/>
<path id="path11_fill" d="M 6.96094 7.92188C 6.64453 8.30078 6.19727 8.5957 5.61914 8.80664C 5.04102 9.01367 4.40039 9.11719 3.69727 9.11719C 2.95898 9.11719 2.31055 8.95703 1.75195 8.63672C 1.19727 8.3125 0.767578 7.84375 0.462891 7.23047C 0.162109 6.61719 0.00781251 5.89648 0 5.06836L 0 4.48828C 0 3.63672 0.142578 2.90039 0.427734 2.2793C 0.716797 1.6543 1.13086 1.17773 1.66992 0.849609C 2.21289 0.517578 2.84766 0.351562 3.57422 0.351562C 4.58594 0.351562 5.37695 0.59375 5.94727 1.07812C 6.51758 1.55859 6.85547 2.25977 6.96094 3.18164L 5.25 3.18164C 5.17188 2.69336 4.99805 2.33594 4.72852 2.10938C 4.46289 1.88281 4.0957 1.76953 3.62695 1.76953C 3.0293 1.76953 2.57422 1.99414 2.26172 2.44336C 1.94922 2.89258 1.79102 3.56055 1.78711 4.44727L 1.78711 4.99219C 1.78711 5.88672 1.95703 6.5625 2.29688 7.01953C 2.63672 7.47656 3.13477 7.70508 3.79102 7.70508C 4.45117 7.70508 4.92188 7.56445 5.20312 7.2832L 5.20312 5.8125L 3.60352 5.8125L 3.60352 4.51758L 6.96094 4.51758L 6.96094 7.92188Z"/>
<path id="path12_fill" d="M 8.01562 5.77148C 8.01562 5.14258 8.13672 4.58203 8.37891 4.08984C 8.62109 3.59766 8.96875 3.2168 9.42188 2.94727C 9.87891 2.67773 10.4082 2.54297 11.0098 2.54297C 11.8652 2.54297 12.5625 2.80469 13.1016 3.32812C 13.6445 3.85156 13.9473 4.5625 14.0098 5.46094L 14.0215 5.89453C 14.0215 6.86719 13.75 7.64844 13.207 8.23828C 12.6641 8.82422 11.9355 9.11719 11.0215 9.11719C 10.1074 9.11719 9.37695 8.82422 8.83008 8.23828C 8.28711 7.65234 8.01562 6.85547 8.01562 5.84766L 8.01562 5.77148ZM 9.70898 5.89453C 9.70898 6.49609 9.82227 6.95703 10.0488 7.27734C 10.2754 7.59375 10.5996 7.75195 11.0215 7.75195C 11.4316 7.75195 11.752 7.5957 11.9824 7.2832C 12.2129 6.9668 12.3281 6.46289 12.3281 5.77148C 12.3281 5.18164 12.2129 4.72461 11.9824 4.40039C 11.752 4.07617 11.4277 3.91406 11.0098 3.91406C 10.5957 3.91406 10.2754 4.07617 10.0488 4.40039C 9.82227 4.7207 9.70898 5.21875 9.70898 5.89453Z"/>
<path id="path13_fill" d="M 14.8008 5.77148C 14.8008 5.14258 14.9219 4.58203 15.1641 4.08984C 15.4062 3.59766 15.7539 3.2168 16.207 2.94727C 16.6641 2.67773 17.1934 2.54297 17.7949 2.54297C 18.6504 2.54297 19.3477 2.80469 19.8867 3.32812C 20.4297 3.85156 20.7324 4.5625 20.7949 5.46094L 20.8066 5.89453C 20.8066 6.86719 20.5352 7.64844 19.9922 8.23828C 19.4492 8.82422 18.7207 9.11719 17.8066 9.11719C 16.8926 9.11719 16.1621 8.82422 15.6152 8.23828C 15.0723 7.65234 14.8008 6.85547 14.8008 5.84766L 14.8008 5.77148ZM 16.4941 5.89453C 16.4941 6.49609 16.6074 6.95703 16.834 7.27734C 17.0605 7.59375 17.3848 7.75195 17.8066 7.75195C 18.2168 7.75195 18.5371 7.5957 18.7676 7.2832C 18.998 6.9668 19.1133 6.46289 19.1133 5.77148C 19.1133 5.18164 18.998 4.72461 18.7676 4.40039C 18.5371 4.07617 18.2129 3.91406 17.7949 3.91406C 17.3809 3.91406 17.0605 4.07617 16.834 4.40039C 16.6074 4.7207 16.4941 5.21875 16.4941 5.89453Z"/>
<path id="path14_fill" d="M 21.6035 5.7832C 21.6035 4.81055 21.834 4.02734 22.2949 3.43359C 22.7598 2.83984 23.3848 2.54297 24.1699 2.54297C 24.8652 2.54297 25.4062 2.78125 25.793 3.25781L 25.8633 2.66016L 27.3984 2.66016L 27.3984 8.78906C 27.3984 9.34375 27.2715 9.82617 27.0176 10.2363C 26.7676 10.6465 26.4141 10.959 25.957 11.1738C 25.5 11.3887 24.9648 11.4961 24.3516 11.4961C 23.8867 11.4961 23.4336 11.4023 22.9922 11.2148C 22.5508 11.0312 22.2168 10.793 21.9902 10.5L 22.7402 9.46875C 23.1621 9.94141 23.6738 10.1777 24.2754 10.1777C 24.7246 10.1777 25.0742 10.0566 25.3242 9.81445C 25.5742 9.57617 25.6992 9.23633 25.6992 8.79492L 25.6992 8.45508C 25.3086 8.89648 24.7949 9.11719 24.1582 9.11719C 23.3965 9.11719 22.7793 8.82031 22.3066 8.22656C 21.8379 7.62891 21.6035 6.83789 21.6035 5.85352L 21.6035 5.7832ZM 23.2969 5.90625C 23.2969 6.48047 23.4121 6.93164 23.6426 7.25977C 23.873 7.58398 24.1895 7.74609 24.5918 7.74609C 25.1074 7.74609 25.4766 7.55273 25.6992 7.16602L 25.6992 4.5C 25.4727 4.11328 25.1074 3.91992 24.6035 3.91992C 24.1973 3.91992 23.877 4.08594 23.6426 4.41797C 23.4121 4.75 23.2969 5.24609 23.2969 5.90625Z"/>
<path id="path15_fill" d="M 30.4922 9L 28.793 9L 28.793 0L 30.4922 0L 30.4922 9Z"/>
<path id="path16_fill" d="M 34.8105 9.11719C 33.8809 9.11719 33.123 8.83203 32.5371 8.26172C 31.9551 7.69141 31.6641 6.93164 31.6641 5.98242L 31.6641 5.81836C 31.6641 5.18164 31.7871 4.61328 32.0332 4.11328C 32.2793 3.60938 32.627 3.22266 33.0762 2.95312C 33.5293 2.67969 34.0449 2.54297 34.623 2.54297C 35.4902 2.54297 36.1719 2.81641 36.668 3.36328C 37.168 3.91016 37.418 4.68555 37.418 5.68945L 37.418 6.38086L 33.3809 6.38086C 33.4355 6.79492 33.5996 7.12695 33.873 7.37695C 34.1504 7.62695 34.5 7.75195 34.9219 7.75195C 35.5742 7.75195 36.084 7.51563 36.4512 7.04297L 37.2832 7.97461C 37.0293 8.33398 36.6855 8.61523 36.252 8.81836C 35.8184 9.01758 35.3379 9.11719 34.8105 9.11719ZM 34.6172 3.91406C 34.2813 3.91406 34.0078 4.02734 33.7969 4.25391C 33.5898 4.48047 33.457 4.80469 33.3984 5.22656L 35.7539 5.22656L 35.7539 5.0918C 35.7461 4.7168 35.6445 4.42773 35.4492 4.22461C 35.2539 4.01758 34.9766 3.91406 34.6172 3.91406Z"/>
<path id="path17_fill" d="M 43.2422 5.99414L 43.2422 9L 41.4844 9L 41.4844 0.46875L 44.8125 0.46875C 45.4531 0.46875 46.0156 0.585938 46.5 0.820312C 46.9883 1.05469 47.3633 1.38867 47.625 1.82227C 47.8867 2.25195 48.0176 2.74219 48.0176 3.29297C 48.0176 4.12891 47.7305 4.78906 47.1562 5.27344C 46.5859 5.75391 45.7949 5.99414 44.7832 5.99414L 43.2422 5.99414ZM 43.2422 4.57031L 44.8125 4.57031C 45.2773 4.57031 45.6309 4.46094 45.873 4.24219C 46.1191 4.02344 46.2422 3.71094 46.2422 3.30469C 46.2422 2.88672 46.1191 2.54883 45.873 2.29102C 45.627 2.0332 45.2871 1.90039 44.8535 1.89258L 43.2422 1.89258L 43.2422 4.57031Z"/>
<path id="path18_fill" d="M 50.9062 9L 49.207 9L 49.207 0L 50.9062 0L 50.9062 9Z"/>
<path id="path19_fill" d="M 55.9805 9C 55.9023 8.84766 55.8457 8.6582 55.8105 8.43164C 55.4004 8.88867 54.8672 9.11719 54.2109 9.11719C 53.5898 9.11719 53.0742 8.9375 52.6641 8.57812C 52.2578 8.21875 52.0547 7.76562 52.0547 7.21875C 52.0547 6.54688 52.3027 6.03125 52.7988 5.67188C 53.2988 5.3125 54.0195 5.13086 54.9609 5.12695L 55.7402 5.12695L 55.7402 4.76367C 55.7402 4.4707 55.6641 4.23633 55.5117 4.06055C 55.3633 3.88477 55.127 3.79688 54.8027 3.79688C 54.5176 3.79688 54.293 3.86523 54.1289 4.00195C 53.9687 4.13867 53.8887 4.32617 53.8887 4.56445L 52.1953 4.56445C 52.1953 4.19727 52.3086 3.85742 52.5352 3.54492C 52.7617 3.23242 53.082 2.98828 53.4961 2.8125C 53.9102 2.63281 54.375 2.54297 54.8906 2.54297C 55.6719 2.54297 56.291 2.74023 56.748 3.13477C 57.209 3.52539 57.4395 4.07617 57.4395 4.78711L 57.4395 7.53516C 57.4434 8.13672 57.5273 8.5918 57.6914 8.90039L 57.6914 9L 55.9805 9ZM 54.5801 7.82227C 54.8301 7.82227 55.0605 7.76758 55.2715 7.6582C 55.4824 7.54492 55.6387 7.39453 55.7402 7.20703L 55.7402 6.11719L 55.1074 6.11719C 54.2598 6.11719 53.8086 6.41016 53.7539 6.99609L 53.748 7.0957C 53.748 7.30664 53.8223 7.48047 53.9707 7.61719C 54.1191 7.75391 54.3223 7.82227 54.5801 7.82227Z"/>
<path id="path20_fill" d="M 61.0137 6.60352L 62.1855 2.66016L 64.002 2.66016L 61.4531 9.98438L 61.3125 10.3184C 60.9336 11.1465 60.3086 11.5605 59.4375 11.5605C 59.1914 11.5605 58.9414 11.5234 58.6875 11.4492L 58.6875 10.166L 58.9453 10.1719C 59.2656 10.1719 59.5039 10.123 59.6602 10.0254C 59.8203 9.92773 59.9453 9.76563 60.0352 9.53906L 60.2344 9.01758L 58.0137 2.66016L 59.8359 2.66016L 61.0137 6.60352Z"/>
</defs>
</svg>
