<svg width="125" height="42" viewBox="0 0 125 42" version="1.1" xmlns="http://www.w3.org/2000/svg" xmlns:xlink="http://www.w3.org/1999/xlink">
<title>Group</title>
<desc>Created using Figma</desc>
<g id="Canvas" transform="translate(-1216 -4789)">
<g id="Group">
<g id="appsListItem wp">
<use xlink:href="#path0_fill" transform="translate(1216 4789)" fill="#1E292D"/>
</g>
<g id="Combined Shape">
<use xlink:href="#path1_fill" transform="translate(1227 4800)" fill="#FFFFFF"/>
</g>
<g id="appsListTitle">
<use xlink:href="#path2_fill" transform="translate(1259.21 4797)" fill="#FFFFFF"/>
<use xlink:href="#path3_fill" transform="translate(1259.21 4797)" fill="#FFFFFF"/>
<use xlink:href="#path4_fill" transform="translate(1259.21 4797)" fill="#FFFFFF"/>
<use xlink:href="#path5_fill" transform="translate(1259.21 4797)" fill="#FFFFFF"/>
<use xlink:href="#path6_fill" transform="translate(1259.21 4797)" fill="#FFFFFF"/>
<use xlink:href="#path7_fill" transform="translate(1259.21 4797)" fill="#FFFFFF"/>
<use xlink:href="#path8_fill" transform="translate(1259.21 4797)" fill="#FFFFFF"/>
<use xlink:href="#path9_fill" transform="translate(1259.21 4797)" fill="#FFFFFF"/>
<use xlink:href="#path10_fill" transform="translate(1259.21 4797)" fill="#FFFFFF"/>
<use xlink:href="#path11_fill" transform="translate(1259.21 4797)" fill="#FFFFFF"/>
<use xlink:href="#path12_fill" transform="translate(1259.21 4797)" fill="#FFFFFF"/>
<use xlink:href="#path13_fill" transform="translate(1259.21 4797)" fill="#FFFFFF"/>
</g>
</g>
</g>
<defs>
<path id="path0_fill" fill-rule="evenodd" d="M 0 5C 0 2.23858 2.23858 0 5 0L 120 0C 122.761 0 125 2.23858 125 5L 125 37C 125 39.7614 122.761 42 120 42L 5 42C 2.23858 42 0 39.7614 0 37L 0 5Z"/>
<path id="path1_fill" fill-rule="evenodd" d="M 20.3076 0L 20.3076 9.26758L 9.23071 9.26758L 9.23071 1.85547L 20.3076 0ZM 8.30432 1.85352L 0 2.89404L 0.00769043 9.26758L 8.30774 9.22412L 8.30432 1.85352ZM 8.30774 17.6084L 8.30127 10.2437L 0 10.1943L 0.000610352 16.5601L 8.30774 17.6084ZM 9.23071 17.6196L 20.3053 19.4619L 20.3076 10.1943L 9.23071 10.1943L 9.23071 17.6196Z"/>
<path id="path2_fill" d="M 7.20117 6.53906L 8.34961 0.46875L 10.1016 0.46875L 8.20898 9L 6.43945 9L 5.05078 3.29297L 3.66211 9L 1.89258 9L 0 0.46875L 1.75195 0.46875L 2.90625 6.52734L 4.3125 0.46875L 5.80078 0.46875L 7.20117 6.53906Z"/>
<path id="path3_fill" d="M 12.7324 9L 11.0332 9L 11.0332 2.66016L 12.7324 2.66016L 12.7324 9ZM 10.9336 1.01953C 10.9336 0.765625 11.0176 0.556641 11.1855 0.392578C 11.3574 0.228516 11.5898 0.146484 11.8828 0.146484C 12.1719 0.146484 12.4023 0.228516 12.5742 0.392578C 12.7461 0.556641 12.832 0.765625 12.832 1.01953C 12.832 1.27734 12.7441 1.48828 12.5684 1.65234C 12.3965 1.81641 12.168 1.89844 11.8828 1.89844C 11.5977 1.89844 11.3672 1.81641 11.1914 1.65234C 11.0195 1.48828 10.9336 1.27734 10.9336 1.01953Z"/>
<path id="path4_fill" d="M 15.6914 2.66016L 15.7441 3.39258C 16.1973 2.82617 16.8047 2.54297 17.5664 2.54297C 18.2383 2.54297 18.7383 2.74023 19.0664 3.13477C 19.3945 3.5293 19.5625 4.11914 19.5703 4.9043L 19.5703 9L 17.877 9L 17.877 4.94531C 17.877 4.58594 17.7988 4.32617 17.6426 4.16602C 17.4863 4.00195 17.2266 3.91992 16.8633 3.91992C 16.3867 3.91992 16.0293 4.12305 15.791 4.5293L 15.791 9L 14.0977 9L 14.0977 2.66016L 15.6914 2.66016Z"/>
<path id="path5_fill" d="M 20.5957 5.7832C 20.5957 4.79492 20.8164 4.00781 21.2578 3.42188C 21.7031 2.83594 22.3105 2.54297 23.0801 2.54297C 23.6973 2.54297 24.207 2.77344 24.6094 3.23438L 24.6094 0L 26.3086 0L 26.3086 9L 24.7793 9L 24.6973 8.32617C 24.2754 8.85352 23.7324 9.11719 23.0684 9.11719C 22.3223 9.11719 21.7227 8.82422 21.2695 8.23828C 20.8203 7.64844 20.5957 6.83008 20.5957 5.7832ZM 22.2891 5.90625C 22.2891 6.5 22.3926 6.95508 22.5996 7.27148C 22.8066 7.58789 23.1074 7.74609 23.502 7.74609C 24.0254 7.74609 24.3945 7.52539 24.6094 7.08398L 24.6094 4.58203C 24.3984 4.14063 24.0332 3.91992 23.5137 3.91992C 22.6973 3.91992 22.2891 4.58203 22.2891 5.90625Z"/>
<path id="path6_fill" d="M 27.3574 5.77148C 27.3574 5.14258 27.4785 4.58203 27.7207 4.08984C 27.9629 3.59766 28.3105 3.2168 28.7637 2.94727C 29.2207 2.67773 29.75 2.54297 30.3516 2.54297C 31.207 2.54297 31.9043 2.80469 32.4434 3.32812C 32.9863 3.85156 33.2891 4.5625 33.3516 5.46094L 33.3633 5.89453C 33.3633 6.86719 33.0918 7.64844 32.5488 8.23828C 32.0059 8.82422 31.2773 9.11719 30.3633 9.11719C 29.4492 9.11719 28.7188 8.82422 28.1719 8.23828C 27.6289 7.65234 27.3574 6.85547 27.3574 5.84766L 27.3574 5.77148ZM 29.0508 5.89453C 29.0508 6.49609 29.1641 6.95703 29.3906 7.27734C 29.6172 7.59375 29.9414 7.75195 30.3633 7.75195C 30.7734 7.75195 31.0938 7.5957 31.3242 7.2832C 31.5547 6.9668 31.6699 6.46289 31.6699 5.77148C 31.6699 5.18164 31.5547 4.72461 31.3242 4.40039C 31.0938 4.07617 30.7695 3.91406 30.3516 3.91406C 29.9375 3.91406 29.6172 4.07617 29.3906 4.40039C 29.1641 4.7207 29.0508 5.21875 29.0508 5.89453Z"/>
<path id="path7_fill" d="M 39.9199 6.69727L 40.752 2.66016L 42.3867 2.66016L 40.7695 9L 39.3516 9L 38.1504 5.00977L 36.9492 9L 35.5371 9L 33.9199 2.66016L 35.5547 2.66016L 36.3809 6.69141L 37.541 2.66016L 38.7656 2.66016L 39.9199 6.69727Z"/>
<path id="path8_fill" d="M 46.6641 7.24805C 46.6641 7.04102 46.5605 6.87891 46.3535 6.76172C 46.1504 6.64063 45.8223 6.5332 45.3691 6.43945C 43.8613 6.12305 43.1074 5.48242 43.1074 4.51758C 43.1074 3.95508 43.3398 3.48633 43.8047 3.11133C 44.2734 2.73242 44.8848 2.54297 45.6387 2.54297C 46.4434 2.54297 47.0859 2.73242 47.5664 3.11133C 48.0508 3.49023 48.293 3.98242 48.293 4.58789L 46.5996 4.58789C 46.5996 4.3457 46.5215 4.14648 46.3652 3.99023C 46.209 3.83008 45.9648 3.75 45.6328 3.75C 45.3477 3.75 45.127 3.81445 44.9707 3.94336C 44.8145 4.07227 44.7363 4.23633 44.7363 4.43555C 44.7363 4.62305 44.8242 4.77539 45 4.89258C 45.1797 5.00586 45.4805 5.10547 45.9023 5.19141C 46.3242 5.27344 46.6797 5.36719 46.9688 5.47266C 47.8633 5.80078 48.3105 6.36914 48.3105 7.17773C 48.3105 7.75586 48.0625 8.22461 47.5664 8.58398C 47.0703 8.93945 46.4297 9.11719 45.6445 9.11719C 45.1133 9.11719 44.6406 9.02344 44.2266 8.83594C 43.8164 8.64453 43.4941 8.38477 43.2598 8.05664C 43.0254 7.72461 42.9082 7.36719 42.9082 6.98438L 44.5137 6.98438C 44.5293 7.28516 44.6406 7.51563 44.8477 7.67578C 45.0547 7.83594 45.332 7.91602 45.6797 7.91602C 46.0039 7.91602 46.248 7.85547 46.4121 7.73438C 46.5801 7.60938 46.6641 7.44727 46.6641 7.24805Z"/>
<path id="path9_fill" d="M 2.31445 20.9941L 2.31445 24L 0.556641 24L 0.556641 15.4688L 3.88477 15.4688C 4.52539 15.4688 5.08789 15.5859 5.57227 15.8203C 6.06055 16.0547 6.43555 16.3887 6.69727 16.8223C 6.95898 17.252 7.08984 17.7422 7.08984 18.293C 7.08984 19.1289 6.80273 19.7891 6.22852 20.2734C 5.6582 20.7539 4.86719 20.9941 3.85547 20.9941L 2.31445 20.9941ZM 2.31445 19.5703L 3.88477 19.5703C 4.34961 19.5703 4.70313 19.4609 4.94531 19.2422C 5.19141 19.0234 5.31445 18.7109 5.31445 18.3047C 5.31445 17.8867 5.19141 17.5488 4.94531 17.291C 4.69922 17.0332 4.35938 16.9004 3.92578 16.8926L 2.31445 16.8926L 2.31445 19.5703Z"/>
<path id="path10_fill" d="M 9.84375 18.3516C 10.293 17.8125 10.8574 17.543 11.5371 17.543C 12.9121 17.543 13.6094 18.3418 13.6289 19.9395L 13.6289 24L 11.9355 24L 11.9355 19.9863C 11.9355 19.623 11.8574 19.3555 11.7012 19.1836C 11.5449 19.0078 11.2852 18.9199 10.9219 18.9199C 10.4258 18.9199 10.0664 19.1113 9.84375 19.4941L 9.84375 24L 8.15039 24L 8.15039 15L 9.84375 15L 9.84375 18.3516Z"/>
<path id="path11_fill" d="M 14.6426 20.7715C 14.6426 20.1426 14.7637 19.582 15.0059 19.0898C 15.248 18.5977 15.5957 18.2168 16.0488 17.9473C 16.5059 17.6777 17.0352 17.543 17.6367 17.543C 18.4922 17.543 19.1895 17.8047 19.7285 18.3281C 20.2715 18.8516 20.5742 19.5625 20.6367 20.4609L 20.6484 20.8945C 20.6484 21.8672 20.377 22.6484 19.834 23.2383C 19.291 23.8242 18.5625 24.1172 17.6484 24.1172C 16.7344 24.1172 16.0039 23.8242 15.457 23.2383C 14.9141 22.6523 14.6426 21.8555 14.6426 20.8477L 14.6426 20.7715ZM 16.3359 20.8945C 16.3359 21.4961 16.4492 21.957 16.6758 22.2773C 16.9023 22.5938 17.2266 22.752 17.6484 22.752C 18.0586 22.752 18.3789 22.5957 18.6094 22.2832C 18.8398 21.9668 18.9551 21.4629 18.9551 20.7715C 18.9551 20.1816 18.8398 19.7246 18.6094 19.4004C 18.3789 19.0762 18.0547 18.9141 17.6367 18.9141C 17.2227 18.9141 16.9023 19.0762 16.6758 19.4004C 16.4492 19.7207 16.3359 20.2188 16.3359 20.8945Z"/>
<path id="path12_fill" d="M 23.25 17.6602L 23.3027 18.3926C 23.7559 17.8262 24.3633 17.543 25.125 17.543C 25.7969 17.543 26.2969 17.7402 26.625 18.1348C 26.9531 18.5293 27.1211 19.1191 27.1289 19.9043L 27.1289 24L 25.4355 24L 25.4355 19.9453C 25.4355 19.5859 25.3574 19.3262 25.2012 19.166C 25.0449 19.002 24.7852 18.9199 24.4219 18.9199C 23.9453 18.9199 23.5879 19.123 23.3496 19.5293L 23.3496 24L 21.6562 24L 21.6562 17.6602L 23.25 17.6602Z"/>
<path id="path13_fill" d="M 31.3359 24.1172C 30.4063 24.1172 29.6484 23.832 29.0625 23.2617C 28.4805 22.6914 28.1895 21.9316 28.1895 20.9824L 28.1895 20.8184C 28.1895 20.1816 28.3125 19.6133 28.5586 19.1133C 28.8047 18.6094 29.1523 18.2227 29.6016 17.9531C 30.0547 17.6797 30.5703 17.543 31.1484 17.543C 32.0156 17.543 32.6973 17.8164 33.1934 18.3633C 33.6934 18.9102 33.9434 19.6855 33.9434 20.6895L 33.9434 21.3809L 29.9062 21.3809C 29.9609 21.7949 30.125 22.127 30.3984 22.377C 30.6758 22.627 31.0254 22.752 31.4473 22.752C 32.0996 22.752 32.6094 22.5156 32.9766 22.043L 33.8086 22.9746C 33.5547 23.334 33.2109 23.6152 32.7773 23.8184C 32.3438 24.0176 31.8633 24.1172 31.3359 24.1172ZM 31.1426 18.9141C 30.8066 18.9141 30.5332 19.0273 30.3223 19.2539C 30.1152 19.4805 29.9824 19.8047 29.9238 20.2266L 32.2793 20.2266L 32.2793 20.0918C 32.2715 19.7168 32.1699 19.4277 31.9746 19.2246C 31.7793 19.0176 31.502 18.9141 31.1426 18.9141Z"/>
</defs>
</svg>
